<?xml version="1.0" encoding="UTF-8" standalone="no"?>
<!DOCTYPE svg PUBLIC "-//W3C//DTD SVG 1.1//EN"
 "http://www.w3.org/Graphics/SVG/1.1/DTD/svg11.dtd">
<!-- Generated by graphviz version 14.1.0 (20251206.1807)
 -->
<!-- Title: HuffmanTree Pages: 1 -->
<svg width="755pt" height="717pt"
 viewBox="0.00 0.00 755.00 717.00" xmlns="http://www.w3.org/2000/svg" xmlns:xlink="http://www.w3.org/1999/xlink">
<g id="graph0" class="graph" transform="scale(1 1) rotate(0) translate(4 713.43)">
<title>HuffmanTree</title>
<polygon fill="white" stroke="none" points="-4,4 -4,-713.43 750.78,-713.43 750.78,4 -4,4"/>
<!-- 1190654826 -->
<g id="node1" class="node">
<title>1190654826</title>
<ellipse fill="none" stroke="black" cx="212.88" cy="-689.3" rx="20.13" ry="20.13"/>
<text xml:space="preserve" text-anchor="middle" x="212.88" y="-684.25" font-family="Times New Roman,serif" font-size="14.00">39</text>
</g>
<!-- 728890494 -->
<g id="node2" class="node">
<title>728890494</title>
<ellipse fill="none" stroke="black" cx="179.88" cy="-596.54" rx="20.13" ry="20.13"/>
<text xml:space="preserve" text-anchor="middle" x="179.88" y="-591.49" font-family="Times New Roman,serif" font-size="14.00">17</text>
</g>
<!-- 1190654826&#45;&gt;728890494 -->
<g id="edge9" class="edge">
<title>1190654826&#45;&gt;728890494</title>
<path fill="none" stroke="black" d="M206.2,-669.94C201.68,-657.51 195.62,-640.84 190.45,-626.62"/>
<polygon fill="black" stroke="black" points="193.77,-625.5 187.06,-617.3 187.19,-627.9 193.77,-625.5"/>
<text xml:space="preserve" text-anchor="middle" x="202.71" y="-637.87" font-family="Times New Roman,serif" font-size="14.00">0</text>
</g>
<!-- 1099983479 -->
<g id="node11" class="node">
<title>1099983479</title>
<ellipse fill="none" stroke="black" cx="246.88" cy="-596.54" rx="20.13" ry="20.13"/>
<text xml:space="preserve" text-anchor="middle" x="246.88" y="-591.49" font-family="Times New Roman,serif" font-size="14.00">22</text>
</g>
<!-- 1190654826&#45;&gt;1099983479 -->
<g id="edge30" class="edge">
<title>1190654826&#45;&gt;1099983479</title>
<path fill="none" stroke="black" d="M219.76,-669.94C224.41,-657.51 230.66,-640.84 235.98,-626.62"/>
<polygon fill="black" stroke="black" points="239.25,-627.89 239.48,-617.3 232.69,-625.43 239.25,-627.89"/>
<text xml:space="preserve" text-anchor="middle" x="236.3" y="-637.87" font-family="Times New Roman,serif" font-size="14.00">1</text>
</g>
<!-- 1558600329 -->
<g id="node3" class="node">
<title>1558600329</title>
<ellipse fill="none" stroke="black" cx="111.88" cy="-492.52" rx="18" ry="18"/>
<text xml:space="preserve" text-anchor="middle" x="111.88" y="-487.47" font-family="Times New Roman,serif" font-size="14.00">8</text>
</g>
<!-- 728890494&#45;&gt;1558600329 -->
<g id="edge3" class="edge">
<title>728890494&#45;&gt;1558600329</title>
<path fill="none" stroke="black" d="M168.95,-579.15C157.82,-562.44 140.42,-536.34 127.76,-517.35"/>
<polygon fill="black" stroke="black" points="130.76,-515.53 122.3,-509.15 124.93,-519.41 130.76,-515.53"/>
<text xml:space="preserve" text-anchor="middle" x="157.34" y="-545.11" font-family="Times New Roman,serif" font-size="14.00">0</text>
</g>
<!-- 1394438858 -->
<g id="node6" class="node">
<title>1394438858</title>
<ellipse fill="none" stroke="black" cx="179.88" cy="-492.52" rx="18" ry="18"/>
<text xml:space="preserve" text-anchor="middle" x="179.88" y="-487.47" font-family="Times New Roman,serif" font-size="14.00">9</text>
</g>
<!-- 728890494&#45;&gt;1394438858 -->
<g id="edge8" class="edge">
<title>728890494&#45;&gt;1394438858</title>
<path fill="none" stroke="black" d="M179.88,-576.35C179.88,-561.14 179.88,-539.63 179.88,-522.35"/>
<polygon fill="black" stroke="black" points="183.38,-522.43 179.88,-512.43 176.38,-522.43 183.38,-522.43"/>
<text xml:space="preserve" text-anchor="middle" x="183.25" y="-545.11" font-family="Times New Roman,serif" font-size="14.00">1</text>
</g>
<!-- 636718812 -->
<g id="node4" class="node">
<title>636718812</title>
<ellipse fill="none" stroke="black" cx="30.88" cy="-376.72" rx="30.88" ry="30.88"/>
<text xml:space="preserve" text-anchor="middle" x="30.88" y="-371.67" font-family="Times New Roman,serif" font-size="14.00">&#39;s&#39; (4)</text>
</g>
<!-- 1558600329&#45;&gt;636718812 -->
<g id="edge1" class="edge">
<title>1558600329&#45;&gt;636718812</title>
<path fill="none" stroke="black" d="M101.95,-477.56C90.39,-461.33 70.9,-433.95 55.25,-411.96"/>
<polygon fill="black" stroke="black" points="58.12,-409.96 49.47,-403.84 52.42,-414.02 58.12,-409.96"/>
<text xml:space="preserve" text-anchor="middle" x="79.6" y="-429.83" font-family="Times New Roman,serif" font-size="14.00">0</text>
</g>
<!-- 1108411398 -->
<g id="node5" class="node">
<title>1108411398</title>
<ellipse fill="none" stroke="black" cx="111.88" cy="-376.72" rx="31.9" ry="31.9"/>
<text xml:space="preserve" text-anchor="middle" x="111.88" y="-371.67" font-family="Times New Roman,serif" font-size="14.00">&#39;x&#39; (4)</text>
</g>
<!-- 1558600329&#45;&gt;1108411398 -->
<g id="edge2" class="edge">
<title>1558600329&#45;&gt;1108411398</title>
<path fill="none" stroke="black" d="M111.88,-474.24C111.88,-459.92 111.88,-438.97 111.88,-420.24"/>
<polygon fill="black" stroke="black" points="115.38,-420.46 111.88,-410.46 108.38,-420.46 115.38,-420.46"/>
<text xml:space="preserve" text-anchor="middle" x="115.25" y="-429.83" font-family="Times New Roman,serif" font-size="14.00">1</text>
</g>
<!-- 584634336 -->
<g id="node7" class="node">
<title>584634336</title>
<ellipse fill="none" stroke="black" cx="179.88" cy="-376.72" rx="18" ry="18"/>
<text xml:space="preserve" text-anchor="middle" x="179.88" y="-371.67" font-family="Times New Roman,serif" font-size="14.00">4</text>
</g>
<!-- 1394438858&#45;&gt;584634336 -->
<g id="edge6" class="edge">
<title>1394438858&#45;&gt;584634336</title>
<path fill="none" stroke="black" d="M179.88,-474.24C179.88,-456.27 179.88,-427.85 179.88,-406.5"/>
<polygon fill="black" stroke="black" points="183.38,-406.68 179.88,-396.68 176.38,-406.68 183.38,-406.68"/>
<text xml:space="preserve" text-anchor="middle" x="183.25" y="-429.83" font-family="Times New Roman,serif" font-size="14.00">0</text>
</g>
<!-- 626202354 -->
<g id="node10" class="node">
<title>626202354</title>
<ellipse fill="none" stroke="black" cx="245.88" cy="-376.72" rx="29.86" ry="29.86"/>
<text xml:space="preserve" text-anchor="middle" x="245.88" y="-371.67" font-family="Times New Roman,serif" font-size="14.00">&#39; &#39; (5)</text>
</g>
<!-- 1394438858&#45;&gt;626202354 -->
<g id="edge7" class="edge">
<title>1394438858&#45;&gt;626202354</title>
<path fill="none" stroke="black" d="M188.51,-476.64C197.86,-460.52 213.11,-434.23 225.54,-412.8"/>
<polygon fill="black" stroke="black" points="228.44,-414.76 230.43,-404.35 222.39,-411.25 228.44,-414.76"/>
<text xml:space="preserve" text-anchor="middle" x="220.21" y="-429.83" font-family="Times New Roman,serif" font-size="14.00">1</text>
</g>
<!-- 1469821799 -->
<g id="node8" class="node">
<title>1469821799</title>
<ellipse fill="none" stroke="black" cx="101.88" cy="-260.42" rx="29.86" ry="29.86"/>
<text xml:space="preserve" text-anchor="middle" x="101.88" y="-255.37" font-family="Times New Roman,serif" font-size="14.00">&#39;j&#39; (2)</text>
</g>
<!-- 584634336&#45;&gt;1469821799 -->
<g id="edge4" class="edge">
<title>584634336&#45;&gt;1469821799</title>
<path fill="none" stroke="black" d="M170,-361.25C158.72,-344.71 139.88,-317.1 124.86,-295.1"/>
<polygon fill="black" stroke="black" points="127.87,-293.3 119.34,-287.01 122.09,-297.24 127.87,-293.3"/>
<text xml:space="preserve" text-anchor="middle" x="148.92" y="-313.52" font-family="Times New Roman,serif" font-size="14.00">0</text>
</g>
<!-- 501263526 -->
<g id="node9" class="node">
<title>501263526</title>
<ellipse fill="none" stroke="black" cx="179.88" cy="-260.42" rx="30.37" ry="30.37"/>
<text xml:space="preserve" text-anchor="middle" x="179.88" y="-255.37" font-family="Times New Roman,serif" font-size="14.00">&#39;’&#39; (2)</text>
</g>
<!-- 584634336&#45;&gt;501263526 -->
<g id="edge5" class="edge">
<title>584634336&#45;&gt;501263526</title>
<path fill="none" stroke="black" d="M179.88,-358.36C179.88,-343.5 179.88,-321.51 179.88,-302.23"/>
<polygon fill="black" stroke="black" points="183.38,-302.48 179.88,-292.48 176.38,-302.48 183.38,-302.48"/>
<text xml:space="preserve" text-anchor="middle" x="183.25" y="-313.52" font-family="Times New Roman,serif" font-size="14.00">1</text>
</g>
<!-- 1268447657 -->
<g id="node12" class="node">
<title>1268447657</title>
<ellipse fill="none" stroke="black" cx="246.88" cy="-492.52" rx="31.39" ry="31.39"/>
<text xml:space="preserve" text-anchor="middle" x="246.88" y="-487.47" font-family="Times New Roman,serif" font-size="14.00">&#39;e&#39; (9)</text>
</g>
<!-- 1099983479&#45;&gt;1268447657 -->
<g id="edge10" class="edge">
<title>1099983479&#45;&gt;1268447657</title>
<path fill="none" stroke="black" d="M246.88,-576.35C246.88,-564.78 246.88,-549.58 246.88,-535.36"/>
<polygon fill="black" stroke="black" points="250.38,-535.76 246.88,-525.76 243.38,-535.76 250.38,-535.76"/>
<text xml:space="preserve" text-anchor="middle" x="250.25" y="-545.11" font-family="Times New Roman,serif" font-size="14.00">0</text>
</g>
<!-- 1401420256 -->
<g id="node13" class="node">
<title>1401420256</title>
<ellipse fill="none" stroke="black" cx="316.88" cy="-492.52" rx="20.13" ry="20.13"/>
<text xml:space="preserve" text-anchor="middle" x="316.88" y="-487.47" font-family="Times New Roman,serif" font-size="14.00">13</text>
</g>
<!-- 1099983479&#45;&gt;1401420256 -->
<g id="edge29" class="edge">
<title>1099983479&#45;&gt;1401420256</title>
<path fill="none" stroke="black" d="M257.82,-579.6C268.95,-563.37 286.38,-537.97 299.42,-518.96"/>
<polygon fill="black" stroke="black" points="302.16,-521.16 304.93,-510.93 296.39,-517.2 302.16,-521.16"/>
<text xml:space="preserve" text-anchor="middle" x="285.25" y="-545.11" font-family="Times New Roman,serif" font-size="14.00">1</text>
</g>
<!-- 1851691492 -->
<g id="node14" class="node">
<title>1851691492</title>
<ellipse fill="none" stroke="black" cx="315.88" cy="-376.72" rx="18" ry="18"/>
<text xml:space="preserve" text-anchor="middle" x="315.88" y="-371.67" font-family="Times New Roman,serif" font-size="14.00">5</text>
</g>
<!-- 1401420256&#45;&gt;1851691492 -->
<g id="edge15" class="edge">
<title>1401420256&#45;&gt;1851691492</title>
<path fill="none" stroke="black" d="M316.71,-471.96C316.55,-453.98 316.31,-427.1 316.13,-406.65"/>
<polygon fill="black" stroke="black" points="319.63,-406.65 316.05,-396.68 312.63,-406.71 319.63,-406.65"/>
<text xml:space="preserve" text-anchor="middle" x="319.81" y="-429.83" font-family="Times New Roman,serif" font-size="14.00">0</text>
</g>
<!-- 379110473 -->
<g id="node19" class="node">
<title>379110473</title>
<ellipse fill="none" stroke="black" cx="385.88" cy="-376.72" rx="18" ry="18"/>
<text xml:space="preserve" text-anchor="middle" x="385.88" y="-371.67" font-family="Times New Roman,serif" font-size="14.00">8</text>
</g>
<!-- 1401420256&#45;&gt;379110473 -->
<g id="edge28" class="edge">
<title>1401420256&#45;&gt;379110473</title>
<path fill="none" stroke="black" d="M327.06,-474.73C338.65,-455.62 357.68,-424.24 370.94,-402.36"/>
<polygon fill="black" stroke="black" points="373.78,-404.43 375.97,-394.06 367.8,-400.8 373.78,-404.43"/>
<text xml:space="preserve" text-anchor="middle" x="358.89" y="-429.83" font-family="Times New Roman,serif" font-size="14.00">1</text>
</g>
<!-- 752848266 -->
<g id="node15" class="node">
<title>752848266</title>
<ellipse fill="none" stroke="black" cx="246.88" cy="-260.42" rx="18" ry="18"/>
<text xml:space="preserve" text-anchor="middle" x="246.88" y="-255.37" font-family="Times New Roman,serif" font-size="14.00">2</text>
</g>
<!-- 1851691492&#45;&gt;752848266 -->
<g id="edge13" class="edge">
<title>1851691492&#45;&gt;752848266</title>
<path fill="none" stroke="black" d="M306.86,-360.78C295.39,-341.78 275.44,-308.73 261.72,-286"/>
<polygon fill="black" stroke="black" points="264.85,-284.41 256.68,-277.66 258.86,-288.03 264.85,-284.41"/>
<text xml:space="preserve" text-anchor="middle" x="288.89" y="-313.52" font-family="Times New Roman,serif" font-size="14.00">0</text>
</g>
<!-- 1190900417 -->
<g id="node18" class="node">
<title>1190900417</title>
<ellipse fill="none" stroke="black" cx="315.88" cy="-260.42" rx="31.9" ry="31.9"/>
<text xml:space="preserve" text-anchor="middle" x="315.88" y="-255.37" font-family="Times New Roman,serif" font-size="14.00">&#39;u&#39; (3)</text>
</g>
<!-- 1851691492&#45;&gt;1190900417 -->
<g id="edge14" class="edge">
<title>1851691492&#45;&gt;1190900417</title>
<path fill="none" stroke="black" d="M315.88,-358.36C315.88,-343.99 315.88,-322.94 315.88,-304.12"/>
<polygon fill="black" stroke="black" points="319.38,-304.29 315.88,-294.29 312.38,-304.29 319.38,-304.29"/>
<text xml:space="preserve" text-anchor="middle" x="319.25" y="-313.52" font-family="Times New Roman,serif" font-size="14.00">1</text>
</g>
<!-- 815033865 -->
<g id="node16" class="node">
<title>815033865</title>
<ellipse fill="none" stroke="black" cx="171.88" cy="-146.16" rx="28.64" ry="28.64"/>
<text xml:space="preserve" text-anchor="middle" x="171.88" y="-133.11" font-family="Times New Roman,serif" font-size="14.00"> (1)</text>
</g>
<!-- 752848266&#45;&gt;815033865 -->
<g id="edge11" class="edge">
<title>752848266&#45;&gt;815033865</title>
<path fill="none" stroke="black" d="M237.07,-244.74C226.12,-228.35 208.06,-201.31 193.72,-179.85"/>
<polygon fill="black" stroke="black" points="196.73,-178.06 188.27,-171.69 190.91,-181.95 196.73,-178.06"/>
<text xml:space="preserve" text-anchor="middle" x="217.24" y="-197.22" font-family="Times New Roman,serif" font-size="14.00">0</text>
</g>
<!-- 1555093762 -->
<g id="node17" class="node">
<title>1555093762</title>
<ellipse fill="none" stroke="black" cx="246.88" cy="-146.16" rx="28.64" ry="28.64"/>
<text xml:space="preserve" text-anchor="middle" x="246.88" y="-133.11" font-family="Times New Roman,serif" font-size="14.00"> (1)</text>
</g>
<!-- 752848266&#45;&gt;1555093762 -->
<g id="edge12" class="edge">
<title>752848266&#45;&gt;1555093762</title>
<path fill="none" stroke="black" d="M246.88,-242.37C246.88,-227.54 246.88,-205.48 246.88,-186.33"/>
<polygon fill="black" stroke="black" points="250.38,-186.38 246.88,-176.38 243.38,-186.38 250.38,-186.38"/>
<text xml:space="preserve" text-anchor="middle" x="250.25" y="-197.22" font-family="Times New Roman,serif" font-size="14.00">1</text>
</g>
<!-- 99550389 -->
<g id="node20" class="node">
<title>99550389</title>
<ellipse fill="none" stroke="black" cx="385.88" cy="-260.42" rx="18" ry="18"/>
<text xml:space="preserve" text-anchor="middle" x="385.88" y="-255.37" font-family="Times New Roman,serif" font-size="14.00">4</text>
</g>
<!-- 379110473&#45;&gt;99550389 -->
<g id="edge20" class="edge">
<title>379110473&#45;&gt;99550389</title>
<path fill="none" stroke="black" d="M385.88,-358.36C385.88,-340.22 385.88,-311.44 385.88,-289.95"/>
<polygon fill="black" stroke="black" points="389.38,-290.08 385.88,-280.08 382.38,-290.08 389.38,-290.08"/>
<text xml:space="preserve" text-anchor="middle" x="389.25" y="-313.52" font-family="Times New Roman,serif" font-size="14.00">0</text>
</g>
<!-- 1530388690 -->
<g id="node25" class="node">
<title>1530388690</title>
<ellipse fill="none" stroke="black" cx="502.88" cy="-260.42" rx="18" ry="18"/>
<text xml:space="preserve" text-anchor="middle" x="502.88" y="-255.37" font-family="Times New Roman,serif" font-size="14.00">4</text>
</g>
<!-- 379110473&#45;&gt;1530388690 -->
<g id="edge27" class="edge">
<title>379110473&#45;&gt;1530388690</title>
<path fill="none" stroke="black" d="M398.4,-363.49C418.46,-343.9 457.99,-305.27 482.26,-281.56"/>
<polygon fill="black" stroke="black" points="484.66,-284.11 489.37,-274.62 479.77,-279.11 484.66,-284.11"/>
<text xml:space="preserve" text-anchor="middle" x="454.76" y="-313.52" font-family="Times New Roman,serif" font-size="14.00">1</text>
</g>
<!-- 1598924227 -->
<g id="node21" class="node">
<title>1598924227</title>
<ellipse fill="none" stroke="black" cx="322.88" cy="-146.16" rx="29.86" ry="29.86"/>
<text xml:space="preserve" text-anchor="middle" x="322.88" y="-141.11" font-family="Times New Roman,serif" font-size="14.00">&#39;i&#39; (2)</text>
</g>
<!-- 99550389&#45;&gt;1598924227 -->
<g id="edge16" class="edge">
<title>99550389&#45;&gt;1598924227</title>
<path fill="none" stroke="black" d="M377.38,-244.28C368.55,-228.54 354.41,-203.35 342.75,-182.57"/>
<polygon fill="black" stroke="black" points="345.94,-181.11 338,-174.1 339.84,-184.53 345.94,-181.11"/>
<text xml:space="preserve" text-anchor="middle" x="361.53" y="-197.22" font-family="Times New Roman,serif" font-size="14.00">0</text>
</g>
<!-- 1144748369 -->
<g id="node22" class="node">
<title>1144748369</title>
<ellipse fill="none" stroke="black" cx="388.88" cy="-146.16" rx="18" ry="18"/>
<text xml:space="preserve" text-anchor="middle" x="388.88" y="-141.11" font-family="Times New Roman,serif" font-size="14.00">2</text>
</g>
<!-- 99550389&#45;&gt;1144748369 -->
<g id="edge19" class="edge">
<title>99550389&#45;&gt;1144748369</title>
<path fill="none" stroke="black" d="M386.33,-242.37C386.81,-224.73 387.55,-196.87 388.11,-175.84"/>
<polygon fill="black" stroke="black" points="391.61,-175.97 388.38,-165.88 384.61,-175.79 391.61,-175.97"/>
<text xml:space="preserve" text-anchor="middle" x="390.93" y="-197.22" font-family="Times New Roman,serif" font-size="14.00">1</text>
</g>
<!-- 340870931 -->
<g id="node23" class="node">
<title>340870931</title>
<ellipse fill="none" stroke="black" cx="308.88" cy="-31.9" rx="29.86" ry="29.86"/>
<text xml:space="preserve" text-anchor="middle" x="308.88" y="-26.85" font-family="Times New Roman,serif" font-size="14.00">&#39;t&#39; (1)</text>
</g>
<!-- 1144748369&#45;&gt;340870931 -->
<g id="edge17" class="edge">
<title>1144748369&#45;&gt;340870931</title>
<path fill="none" stroke="black" d="M378.75,-130.94C367.17,-114.7 347.85,-87.59 332.45,-65.98"/>
<polygon fill="black" stroke="black" points="335.45,-64.15 326.79,-58.04 329.75,-68.22 335.45,-64.15"/>
<text xml:space="preserve" text-anchor="middle" x="357.04" y="-85.01" font-family="Times New Roman,serif" font-size="14.00">0</text>
</g>
<!-- 1768305536 -->
<g id="node24" class="node">
<title>1768305536</title>
<ellipse fill="none" stroke="black" cx="388.88" cy="-31.9" rx="31.9" ry="31.9"/>
<text xml:space="preserve" text-anchor="middle" x="388.88" y="-26.85" font-family="Times New Roman,serif" font-size="14.00">&#39;v&#39; (1)</text>
</g>
<!-- 1144748369&#45;&gt;1768305536 -->
<g id="edge18" class="edge">
<title>1144748369&#45;&gt;1768305536</title>
<path fill="none" stroke="black" d="M388.88,-128.11C388.88,-114.16 388.88,-93.81 388.88,-75.5"/>
<polygon fill="black" stroke="black" points="392.38,-75.66 388.88,-65.66 385.38,-75.66 392.38,-75.66"/>
<text xml:space="preserve" text-anchor="middle" x="392.25" y="-85.01" font-family="Times New Roman,serif" font-size="14.00">1</text>
</g>
<!-- 1146743572 -->
<g id="node26" class="node">
<title>1146743572</title>
<ellipse fill="none" stroke="black" cx="502.88" cy="-146.16" rx="18" ry="18"/>
<text xml:space="preserve" text-anchor="middle" x="502.88" y="-141.11" font-family="Times New Roman,serif" font-size="14.00">2</text>
</g>
<!-- 1530388690&#45;&gt;1146743572 -->
<g id="edge23" class="edge">
<title>1530388690&#45;&gt;1146743572</title>
<path fill="none" stroke="black" d="M502.88,-242.37C502.88,-224.73 502.88,-196.87 502.88,-175.84"/>
<polygon fill="black" stroke="black" points="506.38,-175.88 502.88,-165.88 499.38,-175.88 506.38,-175.88"/>
<text xml:space="preserve" text-anchor="middle" x="506.25" y="-197.22" font-family="Times New Roman,serif" font-size="14.00">0</text>
</g>
<!-- 1717159510 -->
<g id="node29" class="node">
<title>1717159510</title>
<ellipse fill="none" stroke="black" cx="632.88" cy="-146.16" rx="18" ry="18"/>
<text xml:space="preserve" text-anchor="middle" x="632.88" y="-141.11" font-family="Times New Roman,serif" font-size="14.00">2</text>
</g>
<!-- 1530388690&#45;&gt;1717159510 -->
<g id="edge26" class="edge">
<title>1530388690&#45;&gt;1717159510</title>
<path fill="none" stroke="black" d="M516.3,-247.83C538.8,-228.4 584.3,-189.11 611.33,-165.77"/>
<polygon fill="black" stroke="black" points="613.3,-168.7 618.58,-159.51 608.72,-163.4 613.3,-168.7"/>
<text xml:space="preserve" text-anchor="middle" x="579.04" y="-197.22" font-family="Times New Roman,serif" font-size="14.00">1</text>
</g>
<!-- 1512981843 -->
<g id="node27" class="node">
<title>1512981843</title>
<ellipse fill="none" stroke="black" cx="469.88" cy="-31.9" rx="31.39" ry="31.39"/>
<text xml:space="preserve" text-anchor="middle" x="469.88" y="-26.85" font-family="Times New Roman,serif" font-size="14.00">&#39;c&#39; (1)</text>
</g>
<!-- 1146743572&#45;&gt;1512981843 -->
<g id="edge21" class="edge">
<title>1146743572&#45;&gt;1512981843</title>
<path fill="none" stroke="black" d="M498.01,-128.6C493.72,-114.02 487.31,-92.19 481.68,-73.06"/>
<polygon fill="black" stroke="black" points="485.09,-72.24 478.91,-63.63 478.38,-74.22 485.09,-72.24"/>
<text xml:space="preserve" text-anchor="middle" x="491.73" y="-85.01" font-family="Times New Roman,serif" font-size="14.00">0</text>
</g>
<!-- 42768293 -->
<g id="node28" class="node">
<title>42768293</title>
<ellipse fill="none" stroke="black" cx="550.88" cy="-31.9" rx="31.9" ry="31.9"/>
<text xml:space="preserve" text-anchor="middle" x="550.88" y="-26.85" font-family="Times New Roman,serif" font-size="14.00">&#39;g&#39; (1)</text>
</g>
<!-- 1146743572&#45;&gt;42768293 -->
<g id="edge22" class="edge">
<title>1146743572&#45;&gt;42768293</title>
<path fill="none" stroke="black" d="M509.76,-129.08C516.1,-114.24 525.77,-91.62 534.14,-72.04"/>
<polygon fill="black" stroke="black" points="537.32,-73.51 538.03,-62.94 530.89,-70.76 537.32,-73.51"/>
<text xml:space="preserve" text-anchor="middle" x="533.13" y="-85.01" font-family="Times New Roman,serif" font-size="14.00">1</text>
</g>
<!-- 1834188994 -->
<g id="node30" class="node">
<title>1834188994</title>
<ellipse fill="none" stroke="black" cx="632.88" cy="-31.9" rx="31.9" ry="31.9"/>
<text xml:space="preserve" text-anchor="middle" x="632.88" y="-26.85" font-family="Times New Roman,serif" font-size="14.00">&#39;q&#39; (1)</text>
</g>
<!-- 1717159510&#45;&gt;1834188994 -->
<g id="edge24" class="edge">
<title>1717159510&#45;&gt;1834188994</title>
<path fill="none" stroke="black" d="M632.88,-128.11C632.88,-114.16 632.88,-93.81 632.88,-75.5"/>
<polygon fill="black" stroke="black" points="636.38,-75.66 632.88,-65.66 629.38,-75.66 636.38,-75.66"/>
<text xml:space="preserve" text-anchor="middle" x="636.25" y="-85.01" font-family="Times New Roman,serif" font-size="14.00">0</text>
</g>
<!-- 1174361318 -->
<g id="node31" class="node">
<title>1174361318</title>
<ellipse fill="none" stroke="black" cx="714.88" cy="-31.9" rx="31.9" ry="31.9"/>
<text xml:space="preserve" text-anchor="middle" x="714.88" y="-26.85" font-family="Times New Roman,serif" font-size="14.00">&#39;d&#39; (1)</text>
</g>
<!-- 1717159510&#45;&gt;1174361318 -->
<g id="edge25" class="edge">
<title>1717159510&#45;&gt;1174361318</title>
<path fill="none" stroke="black" d="M643.26,-130.94C654.9,-115.01 674.18,-88.61 689.81,-67.22"/>
<polygon fill="black" stroke="black" points="692.51,-69.46 695.58,-59.32 686.85,-65.34 692.51,-69.46"/>
<text xml:space="preserve" text-anchor="middle" x="682.16" y="-85.01" font-family="Times New Roman,serif" font-size="14.00">1</text>
</g>
</g>
</svg>
